Coordinates
version=1
nRows=19
nColumns=24
inDegrees=yes

Units are S.I. units (second, meters, Newtons, ...)
Angles are in degrees.

endheader
time	pelvis_tilt	pelvis_list	pelvis_rotation	pelvis_tx	pelvis_ty	pelvis_tz	hip_flexion_r	hip_adduction_r	hip_rotation_r	knee_angle_r	ankle_angle_r	subtalar_angle_r	mtp_angle_r	hip_flexion_l	hip_adduction_l	hip_rotation_l	knee_angle_l	ankle_angle_l	subtalar_angle_l	mtp_angle_l	lumbar_extension	lumbar_bending	lumbar_rotation
      4.18000000	     62.96656673	      3.21535354	     -4.72653022	      0.55512298	      0.99933184	     -0.29234617	     -2.46996631	    -14.92551235	     15.11697129	    -58.43348386	     -7.98148508	      7.25388266	    -49.96016312	     -6.00206760	     -2.89580824	      1.19678455	    -54.83208795	    -28.25801414	     18.15315511	    124.53745986	      0.00000000	      0.00000000	      0.00000000
      4.19000000	     62.95750675	      3.22334672	     -4.71794320	      0.55509877	      0.99938705	     -0.29236341	     -2.40162045	    -14.64871595	     14.86052240	    -58.23694856	     -8.01115524	      7.47007752	    -49.63813861	     -5.98790802	     -2.92886967	      1.19588010	    -54.79153364	    -28.32880741	     18.17290747	    124.68147438	      0.00000000	      0.00000000	      0.00000000
      4.20000000	     62.95656233	      3.23203333	     -4.70128081	      0.55508513	      0.99937456	     -0.29232335	     -2.35108279	    -14.38174317	     14.60277432	    -58.02071858	     -8.04145091	      7.69122835	    -49.28458317	     -5.98614143	     -2.95542442	      1.20520171	    -54.76250424	    -28.38372806	     18.17711997	    124.78194853	      0.00000000	      0.00000000	      0.00000000
      4.21000000	     62.96694808	      3.24315301	     -4.67885685	      0.55506177	      0.99937244	     -0.29232008	     -2.32680739	    -14.12646567	     14.34829254	    -57.77175331	     -8.06735764	      7.92102828	    -48.92904995	     -5.99942563	     -2.97320765	      1.22179363	    -54.74334709	    -28.42265062	     18.16494261	    124.83889510	      0.00000000	      0.00000000	      0.00000000
      4.22000000	     62.99085319	      3.25673158	     -4.65571579	      0.55503314	      0.99941444	     -0.29238177	     -2.33052355	    -13.88068533	     14.09819378	    -57.48980055	     -8.08510718	      8.16147916	    -48.59880846	     -6.02782436	     -2.98218277	      1.24224688	    -54.72848502	    -28.44672584	     18.13838986	    124.85684413	      0.00000000	      0.00000000	      0.00000000
      4.23000000	     63.02725006	      3.27089392	     -4.63573090	      0.55500210	      0.99947913	     -0.29246383	     -2.35800021	    -13.64137439	     13.85270874	    -57.18382357	     -8.09247422	      8.41240381	    -48.31398170	     -6.07047806	     -2.98470853	      1.26387931	    -54.71289443	    -28.45742136	     18.10131641	    124.84393193	      0.00000000	      0.00000000	      0.00000000
      4.24000000	     63.07316799	      3.28373560	     -4.61990034	      0.55496264	      0.99954403	     -0.29252803	     -2.40067098	    -13.40642364	     13.61322031	    -56.86546298	     -8.08850120	      8.67183327	    -48.08445147	     -6.12526030	     -2.98516368	      1.28556055	    -54.69503987	    -28.45591430	     18.05811330	    124.81048176	      0.00000000	      0.00000000	      0.00000000
      4.25000000	     63.12543147	      3.29466371	     -4.60674598	      0.55491095	      0.99961309	     -0.29257543	     -2.44841796	    -13.17481065	     13.38224265	    -56.54382563	     -8.07271903	      8.93669206	    -47.90900524	     -6.18790045	     -2.98794552	      1.30750991	    -54.67696722	    -28.44343668	     18.01282005	    124.76723517	      0.00000000	      0.00000000	      0.00000000
      4.26000000	     63.18001244	      3.30443522	     -4.59361734	      0.55485191	      0.99969399	     -0.29262180	     -2.49335469	    -12.94599217	     13.16201912	    -56.22394815	     -8.04426481	      9.20338988	    -47.77669184	     -6.25245334	     -2.99478499	      1.33027432	    -54.66240947	    -28.42229502	     17.96885311	    124.72358482	      0.00000000	      0.00000000	      0.00000000
      4.27000000	     63.23184495	      3.31426788	     -4.57761359	      0.55479578	      0.99977377	     -0.29266395	     -2.53202089	    -12.72006249	     12.95405414	    -55.90780733	     -8.00157695	      9.46822888	    -47.66990857	     -6.31267248	     -3.00402837	      1.35400429	    -54.65419379	    -28.39654548	     17.92899984	    124.68626115	      0.00000000	      0.00000000	      0.00000000
      4.28000000	     63.27697760	      3.32545539	     -4.55669593	      0.55475237	      0.99982914	     -0.29269187	     -2.56468695	    -12.49832654	     12.75972695	    -55.59578433	     -7.94308078	      9.72775687	    -47.56844499	     -6.36333710	     -3.01274304	      1.37858908	    -54.65234598	    -28.37163865	     17.89535709	    124.65876532	      0.00000000	      0.00000000	      0.00000000
      4.29000000	     63.31422638	      3.33933953	     -4.53095862	      0.55472334	      0.99985839	     -0.29271322	     -2.59333456	    -12.28342500	     12.58064548	    -55.28772221	     -7.86862389	      9.97913355	    -47.45360928	     -6.40174667	     -3.01931564	      1.40393454	    -54.65407828	    -28.35330313	     17.86927833	    124.64154474	      0.00000000	      0.00000000	      0.00000000
      4.30000000	     63.34455082	      3.35659607	     -4.50265864	      0.55469837	      0.99988561	     -0.29274163	     -2.61977705	    -12.07861672	     12.41828823	    -54.98331555	     -7.78084952	     10.22033780	    -47.31165049	     -6.42927400	     -3.02387439	      1.42954470	    -54.65549612	    -28.34642432	     17.85150897	    124.63270839	      0.00000000	      0.00000000	      0.00000000
      4.31000000	     63.36996379	      3.37669924	     -4.47509902	      0.55466976	      0.99993248	     -0.29278047	     -2.64444159	    -11.88603285	     12.27333087	    -54.68191752	     -7.68563296	     10.45005504	    -47.13592102	     -6.45132931	     -3.02679207	      1.45384575	    -54.65343077	    -28.35430419	     17.84239057	    124.62906026	      0.00000000	      0.00000000	      0.00000000
      4.32000000	     63.39303802	      3.39816114	     -4.45132097	      0.55464462	      0.99999785	     -0.29281926	     -2.66658665	    -11.70556983	     12.14569807	    -54.38256010	     -7.59121454	     10.66727790	    -46.92751394	     -6.47484066	     -3.02764717	      1.47434821	    -54.64621262	    -28.37822100	     17.84186783	    124.62725768	      0.00000000	      0.00000000	      0.00000000
      4.33000000	     63.41624236	      3.41922469	     -4.43317393	      0.55463080	      1.00006494	     -0.29284229	     -2.68583588	    -11.53564047	     12.03550008	    -54.08458625	     -7.50629157	     10.87079198	    -46.69441471	     -6.50492467	     -3.02578173	      1.48876231	    -54.63362253	    -28.41718715	     17.84928752	    124.62488195	      0.00000000	      0.00000000	      0.00000000
      4.34000000	     63.44117807	      3.43846753	     -4.42099156	      0.55462682	      1.00012847	     -0.29285621	     -2.70325658	    -11.37477334	     11.94371913	    -53.78821455	     -7.43780855	     11.05875412	    -46.44947667	     -6.54304366	     -3.02139274	      1.49612635	    -54.61664955	    -28.46794334	     17.86321917	    124.62120225	      0.00000000	      0.00000000	      0.00000000
      4.35000000	     63.46815779	      3.45480879	     -4.41366652	      0.55462848	      1.00019634	     -0.29289081	     -2.72096989	    -11.22271996	     11.87182518	    -53.49445398	     -7.38929066	     11.22852117	    -46.20772189	     -6.58738147	     -3.01581537	      1.49711571	    -54.59723176	    -28.52532482	     17.88154479	    124.61745714	      0.00000000	      0.00000000	      0.00000000
      4.36000000	     63.49638421	      3.46724832	     -4.40876140	      0.55462774	      1.00026282	     -0.29294807	     -2.74075423	    -11.08036086	     11.82064903	    -53.20462843	     -7.36025154	     11.37684304	    -45.98356567	     -6.63455352	     -3.01077511	      1.49344664	    -54.57780772	    -28.58310617	     17.90190517	    124.61657986	      0.00000000	      0.00000000	      0.00000000
